<?xml version="1.0" encoding="UTF-8" standalone="no"?>
<svg
   xmlns:dc="http://purl.org/dc/elements/1.1/"
   xmlns:cc="http://creativecommons.org/ns#"
   xmlns:rdf="http://www.w3.org/1999/02/22-rdf-syntax-ns#"
   xmlns:svg="http://www.w3.org/2000/svg"
   xmlns="http://www.w3.org/2000/svg"
   xmlns:xlink="http://www.w3.org/1999/xlink"
   width="128px"
   height="128px"
   viewBox="0 0 128 128"
   version="1.1"
   id="svg2">
  <metadata
     id="metadata14">
    <rdf:RDF>
      <cc:Work
         rdf:about="">
        <dc:format>image/svg+xml</dc:format>
        <dc:type
           rdf:resource="http://purl.org/dc/dcmitype/StillImage" />
        <dc:title>empty</dc:title>
      </cc:Work>
    </rdf:RDF>
  </metadata>
  <!-- Generator: Sketch 3.0.2 (7799) - http://www.bohemiancoding.com/sketch -->
  <title
     id="title4">empty</title>
  <description
     id="description6">Created with Sketch.</description>
  <defs
     id="defs8">
    <linearGradient
       id="linearGradient3761">
      <stop
         style="stop-color:#4e748b;stop-opacity:1;"
         offset="0"
         id="stop3763" />
      <stop
         style="stop-color:#393e3f;stop-opacity:1;"
         offset="1"
         id="stop3765" />
    </linearGradient>
    <linearGradient
       xlink:href="#linearGradient3761"
       id="linearGradient3767"
       x1="129.66949"
       y1="65.8983"
       x2="129.66949"
       y2="188.59828"
       gradientUnits="userSpaceOnUse" />
  </defs>
  <path
     style="fill:url(#linearGradient3767);fill-opacity:1;fill-rule:evenodd;stroke:none"
     id="path2991"
     d="m 192.54237,128.27118 a 63.18644,63.18644 0 1 1 -126.372883,0 63.18644,63.18644 0 1 1 126.372883,0 z"
     transform="translate(-65.355927,-64.271179)" />
  <circle
     style="fill:none;fill-opacity:1;stroke:#bcc6c5;stroke-width:8;stroke-miterlimit:4;stroke-dasharray:none;stroke-opacity:1"
     id="path4206"
     cx="64"
     cy="64"
     r="46.005703" />
  <circle
     r="29.624008"
     cy="64"
     cx="64"
     id="circle4431"
     style="fill:none;fill-opacity:1;stroke:#bcc6c5;stroke-width:8;stroke-miterlimit:4;stroke-dasharray:none;stroke-opacity:1" />
  <path
     style="fill:#bcc6c5;fill-rule:evenodd;stroke:none;stroke-width:1px;stroke-linecap:butt;stroke-linejoin:miter;stroke-opacity:1;fill-opacity:1"
     d="M 64,32.694614 64,95.419564 82.060069,92.222419 93.630691,78.215876 97.132327,64 91.803751,45.330951 75.513533,33.912574 Z"
     id="path4433" />
  <circle
     r="6.1016951"
     cy="12.864407"
     cx="64"
     id="path4183"
     style="fill:#bcc6c5;fill-opacity:1;stroke:none;stroke-width:8;stroke-miterlimit:4;stroke-dasharray:none;stroke-opacity:1" />
  <use
     height="100%"
     width="100%"
     id="use4185"
     xlink:href="#path4183"
     y="0"
     x="0" />
  <use
     height="100%"
     width="100%"
     id="use4187"
     transform="matrix(0.92387953,0.38268343,-0.38268343,0.92387953,29.362426,-19.620233)"
     xlink:href="#path4183"
     y="0"
     x="0" />
  <use
     height="100%"
     width="100%"
     id="use4189"
     transform="matrix(0.70710678,0.70710678,-0.70710678,0.70710678,63.998109,-26.510451)"
     xlink:href="#path4183"
     y="0"
     x="0" />
  <use
     height="100%"
     width="100%"
     id="use4191"
     transform="matrix(0.38268343,0.92387953,-0.92387953,0.38268343,98.63408,-19.621681)"
     xlink:href="#path4183"
     y="0"
     x="0" />
  <use
     height="100%"
     width="100%"
     id="use4193"
     transform="matrix(0,1,-1,0,127.99733,-0.00267441)"
     xlink:href="#path4183"
     y="0"
     x="0" />
  <use
     height="100%"
     width="100%"
     id="use4195"
     transform="matrix(-0.38268343,0.92387953,-0.92387953,-0.38268343,147.61756,29.359752)"
     xlink:href="#path4183"
     y="0"
     x="0" />
  <use
     height="100%"
     width="100%"
     id="use4197"
     transform="matrix(-0.70710678,0.70710678,-0.70710678,-0.70710678,154.50778,63.995434)"
     xlink:href="#path4183"
     y="0"
     x="0" />
  <use
     height="100%"
     width="100%"
     id="use4199"
     transform="matrix(-0.92387953,0.38268343,-0.38268343,-0.92387953,147.61901,98.631405)"
     xlink:href="#path4183"
     y="0"
     x="0" />
  <use
     height="100%"
     width="100%"
     id="use4201"
     transform="matrix(-1,0,0,-1,128,127.99465)"
     xlink:href="#path4183"
     y="0"
     x="0" />
  <use
     height="100%"
     width="100%"
     id="use4203"
     transform="matrix(-0.92387953,-0.38268343,0.38268343,-0.92387953,98.637574,147.61488)"
     xlink:href="#path4183"
     y="0"
     x="0" />
  <use
     height="100%"
     width="100%"
     id="use4205"
     transform="matrix(-0.70710678,-0.70710678,0.70710678,-0.70710678,64.001891,154.5051)"
     xlink:href="#path4183"
     y="0"
     x="0" />
  <use
     height="100%"
     width="100%"
     id="use4207"
     transform="matrix(-0.38268343,-0.92387953,0.92387953,-0.38268343,29.36592,147.61633)"
     xlink:href="#path4183"
     y="0"
     x="0" />
  <use
     height="100%"
     width="100%"
     id="use4209"
     transform="matrix(0,-1,1,0,0.00267441,127.99733)"
     xlink:href="#path4183"
     y="0"
     x="0" />
  <use
     height="100%"
     width="100%"
     id="use4211"
     transform="matrix(0.38268343,-0.92387953,0.92387953,0.38268343,-19.617559,98.634899)"
     xlink:href="#path4183"
     y="0"
     x="0" />
  <use
     height="100%"
     width="100%"
     id="use4213"
     transform="matrix(0.70710678,-0.70710678,0.70710678,0.70710678,-26.507777,63.999217)"
     xlink:href="#path4183"
     y="0"
     x="0" />
  <use
     height="100%"
     width="100%"
     id="use4215"
     transform="matrix(0.92387953,-0.38268343,0.38268343,0.92387953,-19.619006,29.363246)"
     xlink:href="#path4183"
     y="0"
     x="0" />
</svg>
